<svg xmlns="http://www.w3.org/2000/svg" xmlns:xlink="http://www.w3.org/1999/xlink" viewBox="0 0 834.049 550.486">
  <defs>
    <style>
      .cls-1, .cls-17, .cls-8 {
        opacity: 0.1;
      }

      .cls-2 {
        fill: gray;
      }

      .cls-3 {
        fill: #e1e1e1;
      }

      .cls-4 {
        fill: #fff;
      }

      .cls-5 {
        fill: #535461;
      }

      .cls-6 {
        fill: #E86724;
      }

      .cls-7 {
        fill: #cfcfcf;
      }

      .cls-9 {
        fill: url(#linear-gradient);
      }

      .cls-10, .cls-17 {
        fill: none;
      }

      .cls-11 {
        fill: #fda57d;
      }

      .cls-12 {
        fill: #282829;
      }

      .cls-13 {
        fill: #1d1d1d;
      }

      .cls-14 {
        fill: #262626;
      }

      .cls-15 {
        fill: #111;
      }

      .cls-16 {
        fill: #72351c;
      }

      .cls-17 {
        stroke: #000;
        stroke-miterlimit: 10;
        stroke-width: 2px;
      }
    </style>
    <linearGradient id="linear-gradient" x1="0.5" y1="1" x2="0.5" gradientUnits="objectBoundingBox">
      <stop offset="0" stop-color="gray" stop-opacity="0.251"/>
      <stop offset="0.54" stop-color="gray" stop-opacity="0.122"/>
      <stop offset="1" stop-color="gray" stop-opacity="0.102"/>
    </linearGradient>
  </defs>
  <g id="login" transform="translate(223)">
    <g id="Group_216" data-name="Group 216" class="cls-1" transform="translate(-223 494.827)">
      <ellipse id="Ellipse_35" data-name="Ellipse 35" class="cls-2" cx="417.025" cy="27.83" rx="417.025" ry="27.83"/>
    </g>
    <path id="Path_978" data-name="Path 978" class="cls-3" d="M0,0H329.354V487.356H0Z" transform="translate(0 12.655)"/>
    <path id="Path_958" data-name="Path 958" class="cls-4" d="M239.6,512.636,0,500.026V12.67L239.6.06Z" transform="translate(0 -0.015)"/>
    <circle id="Ellipse_41" data-name="Ellipse 41" class="cls-5" cx="2.967" cy="2.967" r="2.967" transform="translate(216.602 276.732)"/>
    <path id="Path_959" data-name="Path 959" class="cls-5" d="M294.567,377.66l2.055,3.561,2.062,3.561H290.45l2.062-3.561Z" transform="translate(-74.997 -97.516)"/>
    <path id="Path_960" data-name="Path 960" class="cls-6" d="M331.893,512.636l-14.673-.044L317.8.06h14.094Z" transform="translate(-81.91 -0.015)"/>
    <g id="Group_219" data-name="Group 219" transform="translate(235.31)">
      <path id="Path_961" data-name="Path 961" class="cls-7" d="M332.056,512.576H317.22L317.962,0h14.094Z" transform="translate(-317.22)"/>
    </g>
    <circle id="Ellipse_42" data-name="Ellipse 42" class="cls-8" cx="9.643" cy="9.643" r="9.643" transform="translate(209.926 248.544)"/>
    <circle id="Ellipse_43" data-name="Ellipse 43" class="cls-5" cx="9.643" cy="9.643" r="9.643" transform="translate(209.926 247.06)"/>
    <path id="Path_962" data-name="Path 962" class="cls-9" d="M650.029,259.206v5.311l22.447-14.168-2.359-2.967-1.1.645-17.365-25.443V207.822l-6.609.593v-2.359c-17.432-20.073-19.235,2.359-15.63,8.857s10.2,11.246,10.2,11.246c3.709,3.093,10.1,26.46,11.668,32.32Z" transform="translate(-393.4 -112.666)"/>
    <path id="Path_963" data-name="Path 963" class="cls-10" d="M803.373,233.52l-3.064-2.077h-.133l-2.782-8.264-1.009.037-3.457-6.906a28.506,28.506,0,0,0,7.974-5.853c5.4-5.326,10.326-14.465,9.109-29.916-.252-3.2,5.022-11.475-10.763-15.778a21.72,21.72,0,0,0-16.6-18.871,60.2,60.2,0,0,0-18.671-1.632c-12.114,1.031-22.736,9.933-22.736,22.09,0,0-3.657,1.128-3.857,13.122h.467a34.441,34.441,0,0,0,25.124,41.7l.208,1.246c.215.119.438.223.66.326l2.225,5.8-7.188,4.317-14.42.475a56.375,56.375,0,0,0-19.361,4.147c-13.2,5.3-37.245,10.392-37.245,10.392l-7.663-10.956L657.76,252.383l14.762,22.543A34.167,34.167,0,0,0,680.2,279.3h.148l.668.267a60.7,60.7,0,0,0,11.283,3.16,112.8,112.8,0,0,0,38.966.6l-.119-.037.415-.052,5.014,101.625h.326l-2.4,17.4c-23.626,29.575-30.124,115.2-30.124,115.2l34.961,100.52c-.66,2.871-3.316,9.072-13.99,13.419-14.309,5.823,10.148,10.044,10.148,10.044l22.254-6.832c1.84,3.709,12.173,8.6,12.173,8.6l44.277-1.18V620.185h-.593s4.132-39.552,1.179-47.816,0-48.409,0-48.409l2.359-85.6c8.264-16.527,8.264-30.7,1.773-44.277a41.082,41.082,0,0,1-3.709-13.085c1.78-4.191,2.53-11.075.742-22.335-5.311-33.484,11.809-67.013,11.809-67.013h0a57.681,57.681,0,0,0-24.39-58.127ZM776.966,625.273l-4.985-17.885-1.135.319-21.6-90.832,20.073-41.911V515.11l11.216,78.518v26.556a11.751,11.751,0,0,1-3.568,5.089Z" transform="translate(-401.116 -98.781)"/>
    <path id="Path_964" data-name="Path 964" class="cls-11" d="M655.8,218.532v14.205l16.891,24.746L655.8,268.469s-7.507-28.93-11.55-32.335c0,0-6.357-4.54-9.821-10.778s-1.736-27.795,15.021-8.508v2.27Z" transform="translate(-394.709 -115.535)"/>
    <path id="Path_965" data-name="Path 965" class="cls-11" d="M832.215,261.856,825.539,248.5a2.478,2.478,0,0,0-2.092-1.365l-25.354-1.32a2.478,2.478,0,0,0-2.441,3.368l6.55,16.935a2.477,2.477,0,0,0,2.529,1.573l25.532-2.27a2.478,2.478,0,0,0,1.951-3.568Z" transform="translate(-436.678 -125.041)"/>
    <path id="Path_966" data-name="Path 966" class="cls-12" d="M516.81,176.7l4.31,12.648-44.3-1.587,17.017-10.214Z" transform="translate(-123.12 -45.626)"/>
    <path id="Path_967" data-name="Path 967" class="cls-13" d="M371.436,192.914l-2.27-2.834L349.88,201.422v5.111Z" transform="translate(-89.343 -48.081)"/>
    <path id="Path_968" data-name="Path 968" class="cls-14" d="M829.122,446.07a42.28,42.28,0,0,0,2.967,25.963c6.209,13.048,6.238,26.66-1.7,42.542l-2.248,82.25s-2.834,38.573,0,46.51-1.135,45.946-1.135,45.946H795.245V663.763l-10.778-75.44V549.75L765.18,590.022l22.113,93.028-28.93,11.913-36.3-104.37s6.238-82.25,28.93-110.608l4.258-30.918Z" transform="translate(-417.719 -176.749)"/>
    <path id="Path_969" data-name="Path 969" d="M845.337,794.935V773.95H813s-2.27,8.508-17.017,10.207,6.839,11.913,6.839,11.913Z" transform="translate(-435.476 -261.411)"/>
    <path id="Path_970" data-name="Path 970" d="M798.169,777.591l-5.63-20.221-31.155,8.672s.1,8.8-13.656,14.4,9.755,9.643,9.755,9.643Z" transform="translate(-423.232 -257.13)"/>
    <path id="Path_971" data-name="Path 971" class="cls-15" d="M766.131,451.367,840,448.4a41.325,41.325,0,0,0-.556,13.389c-3.383,7.952-10.63,5.771-10.63,5.771l-64.632-1.988Z" transform="translate(-428.595 -177.35)"/>
    <path id="Path_972" data-name="Path 972" class="cls-6" d="M798.664,270.4l2.967,2a55.419,55.419,0,0,1,23.433,55.879h0s-16.453,32.186-11.342,64.372-11.342,27.231-11.342,27.231l-64.951-2-4.822-97.657s-39.137,5.571-56.725-8.048L661.7,290.517l21.556-14.836L690.63,286.2s23.1-4.881,35.784-10.022a54.2,54.2,0,0,1,18.589-4Z" transform="translate(-402.133 -131.389)"/>
    <path id="Path_974" data-name="Path 974" class="cls-8" d="M739.749,334.542s-27.224-9.072-39.137-9.072-9.925,5.148-9.925,5.148S709.684,339.074,739.749,334.542Z" transform="translate(-409.586 -145.608)"/>
    <path id="Path_975" data-name="Path 975" class="cls-8" d="M798.1,247.349l10.838,1.3c.341.045.653.475.838,1.142-2.381,4.295-5.363,6.862-8.6,6.862a6.676,6.676,0,0,1-3.286-.912l-.831-5.014C796.782,249.048,797.339,247.26,798.1,247.349Z" transform="translate(-437.066 -125.436)"/>
    <circle id="Ellipse_44" data-name="Ellipse 44" class="cls-11" cx="33.084" cy="33.084" r="33.084" transform="translate(335.511 63.905)"/>
    <path id="Path_976" data-name="Path 976" class="cls-8" d="M770.75,180.631h0l1.669,1.528a5.719,5.719,0,0,1-1.669,9.5h0s14.836,14.836,16.883,17.573-.341,9.992-.341,9.992-6.55,12.061,27.914,9.3c0,0,22.743-4.822,20.332-35.495-.245-3.071,4.822-11.03-10.341-15.162h0a20.867,20.867,0,0,0-15.948-18.137,57.859,57.859,0,0,0-17.936-1.573,22.521,22.521,0,0,0-20.562,22.469Z" transform="translate(-430.291 -102.372)"/>
    <path id="Path_977" data-name="Path 977" class="cls-16" d="M768.489,178.625h0s-3.509,1.083-3.709,12.61l4.992-.341s11.557,30.91,10.341,26.882c-4.451-14.836,4.451-12.061,6.55-9.3s-.341,9.992-.341,9.992-6.543,12.039,27.914,9.3c0,0,22.743-4.822,20.332-35.495-.245-3.071,4.822-11.03-10.341-15.162h0a20.866,20.866,0,0,0-15.948-18.137,57.859,57.859,0,0,0-17.936-1.573C778.7,158.4,768.489,166.942,768.489,178.625Z" transform="translate(-428.749 -102.176)"/>
    <line id="Line_36" data-name="Line 36" class="cls-17" y2="490.36" transform="translate(39.181 11.95)"/>
    <line id="Line_37" data-name="Line 37" class="cls-17" y2="494.811" transform="translate(81.463 8.983)"/>
    <line id="Line_38" data-name="Line 38" class="cls-17" y2="499.884" transform="translate(123.745 6.758)"/>
    <line id="Line_39" data-name="Line 39" class="cls-17" y2="505.196" transform="translate(166.027 4.532)"/>
    <line id="Line_40" data-name="Line 40" class="cls-17" y2="508.044" transform="translate(208.309 2.307)"/>
  </g>
</svg>
