<svg xmlns="http://www.w3.org/2000/svg" viewBox="0 0 776.411 286.841"><defs><style>.a{fill:#51748b;}.b{fill:#e86724;}</style></defs><g transform="translate(-0.014 0.022)"><path class="a" d="M736.87,391.51v1.45C737,392.07,737,391.54,736.87,391.51Z" transform="translate(-409.08 -262.87)"/><path class="a" d="M729,363.91a40,40,0,0,1,7.14,15.67C735.09,373.38,732.93,369.26,729,363.91Z" transform="translate(-409.08 -262.87)"/><path class="a" d="M629.41,376c-.22-4.9.13-12.56-.46-17.79a7.3,7.3,0,0,0-.15-1.19c-9.42-61.64-65.81-103-127-92.56-43.09,7.37-72.68,32.29-86.44,73.72C401.44,380,411,417.63,441.17,449.53c20.65,21.85,47,31.88,76.66,33.2,11.33.5,19.77-6.79,20.61-16.66.86-10.18-6-17.86-17.58-19.44-4.45-.61-9-.39-13.44-1.12-42.32-6.95-69.77-49.18-59.4-91.22,10.14-41.14,54.51-65.22,95-51.59,38.77,13.05,58.9,53.07,46.81,93.11-3.89,12.91,0,22.59,10.37,26,10.73,3.53,20.54-2.23,24.06-15.41.22-.79.43-1.63.63-2.51C627.58,392.8,629.8,376.12,629.41,376Z" transform="translate(-409.08 -262.87)"/><path class="a" d="M772.14,281.85c-.34-10.33-6.77-17.51-16.16-18.48-8.57-.89-16.1,5.38-18.12,15.36a49.7,49.7,0,0,0-.84,9.44c-.09,14.78,0,29.56,0,46.06l-6.67-4.2a53.8,53.8,0,0,0-68.78,8.73c-23.82,25.48-24.88,75.32-2.8,102.13,18.14,22,54.93,30.86,76.43,6.08.22-.25,1,0,.73,0,3.31,3.91,5.66,8.43,9.38,10.77,12.63,8,26.83-1.08,26.88-17,.14-45.54.05-91.08.05-136.61C772.2,296.67,772.38,289.25,772.14,281.85ZM736.86,393a52.32,52.32,0,0,1-7,24c-9.36,16.46-30.55,17.71-42.85,3.39-13.38-15.59-12.61-44.54,1.57-59.21A26.65,26.65,0,0,1,729,363.91c4,5.35,6.13,9.47,7.14,15.67a42.449,42.449,0,0,1,.77,11.93C737,391.54,737,392.07,736.86,393Z" transform="translate(-409.08 -262.87)"/><path class="a" d="M1160.75,403.29c23.56,0,27.56-4.84,23.22-28.11-6.47-34.74-42.87-59.84-76.13-52.51-25.72,5.67-42.13,21.9-49.54,46.45-8,26.49-4.71,52.08,15.08,72.51,23,23.72,51.5,25.05,80.79,14.06,9.27-3.48,17.59-10.29,25.3-16.81,5.09-4.3,3.44-10.77-.33-15.92s-9.23-7.27-15.4-5c-4.44,1.62-8.58,4.11-12.76,6.38-9.24,5-18.88,8.08-29.6,7.23-16.7-1.32-29-12.12-30.25-27.84,2.82-.14,5.62-.4,8.42-.41Q1130.15,403.27,1160.75,403.29ZM1121.57,350c14.08,1.12,24.91,10.29,27.68,24.08.37,1.85-1.85,6.07-2.94,6.09-18.4.38-36.81.27-55.07.27C1088.89,364.34,1105.05,348.72,1121.57,350Z" transform="translate(-409.08 -262.87)"/><path class="a" d="M1033,323.34c-8.85-.2-13.39,3.09-16.57,12.75-7,21.32-13.86,42.7-20.81,64-.85,2.6-1.93,5.13-2.91,7.69l-2,.08c-1.23-3.32-2.57-6.6-3.66-10-6.59-20.34-13.06-40.73-19.71-61.05-2.33-7.11-6-13-14.62-13.54-15.27-.91-23.41,10.53-17.52,26.11,12.42,32.86,25.35,65.53,38.28,98.21,3.85,9.72,9.26,13.13,18.73,12.88,8.94-.24,14.71-4.61,17.88-13.05,5.09-13.6,10.61-27.05,15.83-40.61,7.88-20.46,16.1-40.8,23.31-61.49C1053.38,333.52,1045.45,323.62,1033,323.34Z" transform="translate(-409.08 -262.87)"/><path class="a" d="M854.64,323.28c-11.64-.79-19.17,5.84-26.33,15.19-5-13.41-10.85-17-22.58-15-9.34,1.61-13.49,7.7-13.5,20.1,0,32.57-.07,65.13.06,97.69.05,11.46,6.86,19,16.75,19.22,10.1.22,17.27-7.64,17.35-19.43.13-18,.17-36,0-54q-.14-16.39,14.19-23.77c6.57-3.38,13.44-6.17,20.22-9.13,9.26-4.05,11.82-8.67,9.85-18.08C869.09,328.59,862.8,323.82,854.64,323.28Z" transform="translate(-409.08 -262.87)"/><path class="a" d="M918.38,342.8c-.17-12.21-6.81-19.38-17.28-19.47s-17.74,6.86-17.84,18.92q-.43,49.59,0,99.2c.06,7.44,3,14,10.41,17.4,12.32,5.65,24.48-3.3,24.71-18.44q.09-6.06.11-12.1,0-18.165-.06-36.31C918.44,375.6,918.62,359.19,918.38,342.8Z" transform="translate(-409.08 -262.87)"/><path class="a" d="M567.58,470.43c7.88,11.24,17.48,13.87,27,7.5,7.41-5,9.7-12.23,6.79-20.57a34,34,0,0,0-4.07-7.83c-2.39-3.5-4.83-7-7.26-10.42-12.16-17.32-24.2-34.74-36.56-51.91-5.24-7.28-12.67-9.47-20.17-6.93-8.12,2.76-12.2,8.18-13.32,16.8,1.45,3.87,2.58,7.9,4.46,11.55a30.133,30.133,0,0,0,2.29,3.69c1.29,1.84,2.72,3.6,4,5.44Q549.15,444.09,567.58,470.43Z" transform="translate(-410.08 -261.87)"/><path class="a" d="M901.24,267.78a19.53,19.53,0,0,0-19.84,19.27,19.22,19.22,0,0,0,19.53,19.55c11.21,0,19.29-8.19,19.3-19.57a19.35,19.35,0,0,0-18.99-19.25Z" transform="translate(-409.08 -262.87)"/><path class="b" d="M3.28-53.882V5.544a8,8,0,0,0,1.929,5.6,6.465,6.465,0,0,0,5.017,2.122,6.664,6.664,0,0,0,4.582-1.5,8.08,8.08,0,0,0,2.364-4.293,11.893,11.893,0,0,0,5.547,4.775,17.733,17.733,0,0,0,7.187,1.592,20.1,20.1,0,0,0,9.454-2.219A22.676,22.676,0,0,0,46.6,5.689,27.261,27.261,0,0,0,51.178-2.7a29.607,29.607,0,0,0,1.592-9.6,36.685,36.685,0,0,0-1.4-9.985,27.662,27.662,0,0,0-4.2-8.827,22.188,22.188,0,0,0-6.994-6.271A19.306,19.306,0,0,0,30.389-39.8a20.781,20.781,0,0,0-7.042,1.206,19.372,19.372,0,0,0-6.174,3.618V-53.882a8,8,0,0,0-1.929-5.6A6.465,6.465,0,0,0,10.226-61.6a6.465,6.465,0,0,0-5.017,2.122A8,8,0,0,0,3.28-53.882ZM17.172-13.364a18.689,18.689,0,0,1,.675-4.968,14.085,14.085,0,0,1,2.026-4.389,10.85,10.85,0,0,1,3.377-3.135,9.26,9.26,0,0,1,4.824-1.206,8.549,8.549,0,0,1,4.727,1.3,11.484,11.484,0,0,1,3.377,3.328A15.18,15.18,0,0,1,38.2-17.85a19.419,19.419,0,0,1,.675,4.968,18.876,18.876,0,0,1-.675,4.92,15.259,15.259,0,0,1-2.026,4.534A10.946,10.946,0,0,1,32.8-.147a8.8,8.8,0,0,1-4.727,1.254,8.909,8.909,0,0,1-4.92-1.3,11.269,11.269,0,0,1-3.377-3.377A14.881,14.881,0,0,1,17.8-8.251,21.8,21.8,0,0,1,17.172-13.364ZM69.846-8.348H99.462q3.184,0,4.631-1.544a6.552,6.552,0,0,0,1.447-4.631,23.765,23.765,0,0,0-1.785-8.827A27.256,27.256,0,0,0,98.691-31.5a26.226,26.226,0,0,0-7.911-5.981A22.542,22.542,0,0,0,80.554-39.8a22.824,22.824,0,0,0-10.081,2.219,24.769,24.769,0,0,0-7.862,5.933A27.426,27.426,0,0,0,57.5-23.06a28.664,28.664,0,0,0-1.833,10.178,29.353,29.353,0,0,0,1.881,10.66A25.1,25.1,0,0,0,62.851,6.22a24.45,24.45,0,0,0,8.2,5.6,27.038,27.038,0,0,0,10.66,2.026,32.553,32.553,0,0,0,7.911-1.013,35.735,35.735,0,0,0,7.332-2.653,19.759,19.759,0,0,0,5.354-3.762,6.25,6.25,0,0,0,2.074-4.341,5.935,5.935,0,0,0-1.736-4.1A5.262,5.262,0,0,0,98.691-3.91a6.489,6.489,0,0,0-2.991.868q-1.64.868-3.569,1.929a33.738,33.738,0,0,1-4.2,1.929,13.782,13.782,0,0,1-4.968.868A15.5,15.5,0,0,1,74.331-.726,10.358,10.358,0,0,1,69.846-8.348Zm21.8-9.261H69.556a12.56,12.56,0,0,1,3.425-7.525,10,10,0,0,1,7.573-3.087,10.053,10.053,0,0,1,7.718,2.991A13.222,13.222,0,0,1,91.648-17.609Zm22.189-8.875V5.544a8,8,0,0,0,1.929,5.6,6.99,6.99,0,0,0,10.033,0,8,8,0,0,0,1.929-5.6V-26.484h3.955a7.892,7.892,0,0,0,4.679-1.4q1.978-1.4,1.978-4.679,0-3.377-1.978-4.727a8.094,8.094,0,0,0-4.679-1.351h-3.955v-8.3a8,8,0,0,0-1.929-5.6,6.465,6.465,0,0,0-5.017-2.122,6.465,6.465,0,0,0-5.017,2.122,8,8,0,0,0-1.929,5.6v8.3H110.75a5.89,5.89,0,0,0-4.341,1.736,5.89,5.89,0,0,0-1.736,4.341,6,6,0,0,0,1.64,4.438,6,6,0,0,0,4.438,1.64ZM186.48,4.194V-30.15q0-1.351-.1-2.942a8.083,8.083,0,0,0-.724-2.942,5.549,5.549,0,0,0-1.978-2.267,6.844,6.844,0,0,0-3.859-.916,6.653,6.653,0,0,0-4.438,1.64,6.2,6.2,0,0,0-2.219,4.148,13.869,13.869,0,0,0-5.837-4.824,18.188,18.188,0,0,0-7.38-1.544,19.781,19.781,0,0,0-8.972,2.074,23.449,23.449,0,0,0-7.284,5.692,26.882,26.882,0,0,0-4.92,8.538,30.888,30.888,0,0,0-1.785,10.612,32.266,32.266,0,0,0,1.736,10.8,25.532,25.532,0,0,0,4.824,8.441,22.151,22.151,0,0,0,7.284,5.5,21.114,21.114,0,0,0,9.117,1.978,16.614,16.614,0,0,0,13.217-6.464,10.564,10.564,0,0,0,2.171,4.341,5.785,5.785,0,0,0,4.486,1.544,6.844,6.844,0,0,0,3.859-.916,5.549,5.549,0,0,0,1.978-2.267,8.083,8.083,0,0,0,.724-2.942Q186.48,5.544,186.48,4.194Zm-35.6-17.076a20.615,20.615,0,0,1,.627-5.017,14.4,14.4,0,0,1,1.978-4.534,11.273,11.273,0,0,1,3.425-3.328,9.153,9.153,0,0,1,4.968-1.3,8.549,8.549,0,0,1,4.727,1.3,11.484,11.484,0,0,1,3.377,3.328,14.4,14.4,0,0,1,1.978,4.534,20.615,20.615,0,0,1,.627,5.017,19.223,19.223,0,0,1-.675,5.017,15.344,15.344,0,0,1-1.978,4.486,10.646,10.646,0,0,1-3.328,3.232,8.8,8.8,0,0,1-4.727,1.254,9.233,9.233,0,0,1-4.872-1.254,10.968,10.968,0,0,1-3.425-3.232,14.626,14.626,0,0,1-2.026-4.486A19.223,19.223,0,0,1,150.882-12.882Z" transform="translate(589.734 272.978)"/></g></svg>