<svg xmlns="http://www.w3.org/2000/svg" viewBox="0 0 776.41 219.91"><defs><style>.cls-1{fill:#51748b;}</style></defs><title>Fichier 1</title><g id="Calque_2" data-name="Calque 2"><g id="Calque_1-2" data-name="Calque 1"><path class="cls-1" d="M327.78,128.66v1.45C327.91,129.22,327.91,128.69,327.78,128.66Z"/><path class="cls-1" d="M319.91,101.06a40.05,40.05,0,0,1,7.14,15.67C326,110.53,323.84,106.41,319.91,101.06Z"/><path class="cls-1" d="M220.32,113.15c-.22-4.9.13-12.56-.46-17.79a7.9,7.9,0,0,0-.15-1.19c-9.42-61.64-65.81-103-127-92.56C49.62,9,20,33.9,6.27,75.33c-13.92,41.82-4.36,79.45,25.81,111.35,20.65,21.85,47,31.88,76.66,33.2,11.33.5,19.77-6.79,20.61-16.66.86-10.18-6-17.86-17.58-19.44-4.45-.61-9-.39-13.44-1.12C56,175.71,28.56,133.48,38.93,91.44c10.14-41.14,54.51-65.22,95-51.59,38.77,13,58.9,53.07,46.81,93.11-3.89,12.91,0,22.59,10.37,26,10.73,3.53,20.54-2.23,24.06-15.41.22-.79.43-1.63.63-2.51C218.49,130,220.71,113.27,220.32,113.15Z"/><path class="cls-1" d="M363.05,19C362.71,8.67,356.28,1.49,346.89.52c-8.57-.89-16.1,5.38-18.12,15.36a49,49,0,0,0-.84,9.44c-.09,14.78,0,29.56,0,46.06l-6.67-4.2a53.8,53.8,0,0,0-68.78,8.73c-23.82,25.48-24.88,75.32-2.8,102.13,18.14,22,54.93,30.86,76.43,6.08.22-.25,1,0,.73,0,3.31,3.91,5.66,8.43,9.38,10.77,12.63,8,26.83-1.08,26.88-17,.14-45.54,0-91.08,0-136.61C363.11,33.82,363.29,26.4,363.05,19ZM327.77,130.15a52.4,52.4,0,0,1-7,24c-9.36,16.46-30.55,17.71-42.85,3.39C264.54,142,265.31,113,279.49,98.33a26.65,26.65,0,0,1,37.68-.4,27.17,27.17,0,0,1,2.74,3.13c4,5.35,6.13,9.47,7.14,15.67a43,43,0,0,1,.77,11.93C327.91,128.69,327.91,129.22,327.77,130.15Z"/><path class="cls-1" d="M751.66,140.44c23.56,0,27.56-4.84,23.22-28.11C768.41,77.59,732,52.49,698.75,59.82c-25.72,5.67-42.13,21.9-49.54,46.45-8,26.49-4.71,52.08,15.08,72.51,23,23.72,51.5,25.05,80.79,14.06,9.27-3.48,17.59-10.29,25.3-16.81,5.09-4.3,3.44-10.77-.33-15.92s-9.23-7.27-15.4-5c-4.44,1.62-8.58,4.11-12.76,6.38-9.24,5-18.88,8.08-29.6,7.23-16.7-1.32-29-12.12-30.25-27.84,2.82-.14,5.62-.4,8.42-.41Q721.06,140.43,751.66,140.44ZM712.48,87.15c14.08,1.12,24.91,10.29,27.68,24.08.37,1.85-1.85,6.07-2.94,6.09-18.4.38-36.81.27-55.07.27C679.8,101.49,696,85.87,712.48,87.15Z"/><path class="cls-1" d="M623.91,60.49c-8.85-.2-13.39,3.09-16.57,12.75-7,21.32-13.86,42.7-20.81,64-.85,2.6-1.93,5.13-2.91,7.69l-2,.08c-1.23-3.32-2.57-6.6-3.66-10-6.59-20.34-13.06-40.73-19.71-61-2.33-7.11-6-13-14.62-13.54-15.27-.91-23.41,10.53-17.52,26.11,12.42,32.86,25.35,65.53,38.28,98.21,3.85,9.72,9.26,13.13,18.73,12.88,8.94-.24,14.71-4.61,17.88-13.05,5.09-13.6,10.61-27,15.83-40.61,7.88-20.46,16.1-40.8,23.31-61.49C644.29,70.67,636.36,60.77,623.91,60.49Z"/><path class="cls-1" d="M445.55,60.43c-11.64-.79-19.17,5.84-26.33,15.19-5-13.41-10.85-17-22.58-15-9.34,1.61-13.49,7.7-13.5,20.1,0,32.57-.07,65.13.06,97.69.05,11.46,6.86,19,16.75,19.22,10.1.22,17.27-7.64,17.35-19.43.13-18,.17-36,0-54q-.15-16.38,14.19-23.77c6.57-3.38,13.44-6.17,20.22-9.13,9.26-4,11.82-8.67,9.85-18.08C460,65.74,453.71,61,445.55,60.43Z"/><path class="cls-1" d="M509.29,80c-.17-12.21-6.81-19.38-17.28-19.47s-17.74,6.86-17.84,18.92q-.44,49.59,0,99.2c.06,7.44,3,14,10.41,17.4,12.32,5.65,24.48-3.3,24.71-18.44q.09-6.06.11-12.1,0-18.17-.06-36.31C509.35,112.75,509.53,96.34,509.29,80Z"/><path class="cls-1" d="M157.49,208.58c7.88,11.24,17.48,13.87,27,7.5,7.41-5,9.7-12.23,6.79-20.57a34.09,34.09,0,0,0-4.07-7.83c-2.39-3.5-4.83-7-7.26-10.42-12.16-17.32-24.2-34.74-36.56-51.91-5.24-7.28-12.67-9.47-20.17-6.93-8.12,2.76-12.2,8.18-13.32,16.8,1.45,3.87,2.58,7.9,4.46,11.55a29.12,29.12,0,0,0,2.29,3.69c1.29,1.84,2.72,3.6,4,5.44Q139.05,182.24,157.49,208.58Z"/><path class="cls-1" d="M492.15,4.93a19.53,19.53,0,0,0-19.84,19.22v.05a19.21,19.21,0,0,0,18.88,19.55h.65c11.21,0,19.29-8.19,19.3-19.57a19.36,19.36,0,0,0-19-19.25Z"/></g></g></svg>