<svg xmlns="http://www.w3.org/2000/svg" viewBox="0 0 240 240">
  <defs>
    <style>
      .cls-1 {
        fill: #E86724;
      }

      .cls-2 {
        fill: #fff;
      }

      .cls-3, .cls-4, .cls-6 {
        fill: none;
      }

      .cls-3 {
        stroke: #fe853d;
      }

      .cls-4 {
        stroke: #ffdac4;
      }

      .cls-5 {
        stroke: none;
      }
    </style>
  </defs>
  <g id="security" transform="translate(-918 -494)">
    <circle id="Ellipse" class="cls-1" cx="100" cy="100" r="100" transform="translate(938 514)"/>
    <circle id="Ellipse-2" data-name="Ellipse" class="cls-2" cx="90" cy="90" r="90" transform="translate(948 524)"/>
    <g id="Outline" class="cls-3" transform="translate(928 504)">
      <circle class="cls-5" cx="110" cy="110" r="110"/>
      <circle class="cls-6" cx="110" cy="110" r="109.5"/>
    </g>
    <g id="Outline_big" data-name="Outline big" class="cls-4" transform="translate(918 494)">
      <circle class="cls-5" cx="120" cy="120" r="120"/>
      <circle class="cls-6" cx="120" cy="120" r="119.5"/>
    </g>
    <path id="Path_986" data-name="Path 986" class="cls-1" d="M40.335-19.614A8.231,8.231,0,0,1,34.3-17.1a8.231,8.231,0,0,1-6.035-2.515A8.348,8.348,0,0,1,25.75-25.75a8.348,8.348,0,0,1,2.515-6.136A8.231,8.231,0,0,1,34.3-34.4a8.231,8.231,0,0,1,6.035,2.515A8.348,8.348,0,0,1,42.85-25.75,8.348,8.348,0,0,1,40.335-19.614ZM60.15-55.725a8.116,8.116,0,0,1,5.935,2.515A8.116,8.116,0,0,1,68.6-47.275V-4.225A8.116,8.116,0,0,1,66.085,1.71,8.116,8.116,0,0,1,60.15,4.225H8.65A8.348,8.348,0,0,1,2.515,1.71,8.116,8.116,0,0,1,0-4.225V-47.275A8.116,8.116,0,0,1,2.515-53.21,8.348,8.348,0,0,1,8.65-55.725H47.678v-8.65a12.771,12.771,0,0,0-3.923-9.354A12.887,12.887,0,0,0,34.3-77.652a12.558,12.558,0,0,0-9.354,3.923,12.94,12.94,0,0,0-3.822,9.354H12.875a20.719,20.719,0,0,1,6.337-15.188A20.719,20.719,0,0,1,34.4-85.9a20.389,20.389,0,0,1,15.088,6.337,20.886,20.886,0,0,1,6.236,15.188v8.65Zm0,51.5V-47.275H8.65V-4.225Z" transform="translate(1004 647)"/>
  </g>
</svg>
