<svg xmlns="http://www.w3.org/2000/svg" viewBox="0 0 936.384 645.479">
  <defs>
    <style>
      .cls-1 {
        fill: #124b46;
        opacity: 0.32;
      }

      .cls-2, .cls-6, .cls-9 {
        fill: #E86724;
      }

      .cls-3 {
        fill: #444053;
      }

      .cls-4 {
        opacity: 0.7;
      }

      .cls-5 {
        fill: #14433e;
      }

      .cls-6, .cls-7 {
        opacity: 0.1;
      }

      .cls-8 {
        fill: #fff;
      }

      .cls-10, .cls-9 {
        opacity: 0.3;
      }

      .cls-11 {
        fill: none;
      }

      .cls-12 {
        fill: #727a9c;
      }

      .cls-13 {
        fill: #009688;
      }
    </style>
  </defs>
  <g id="sign-up-success" transform="translate(0.003)">
    <path id="Path_819" data-name="Path 819" class="cls-1" d="M311.423,84.371c31.768-28.616,81.641-34.443,127.033-32.165,142.576,7.156,271.279,76.657,382.606,155.276,40.3,28.462,79.98,59.16,106.164,98.328,53.26,79.785,37.457,190.318-36.59,256.043-25.2,22.367-55.74,39.508-87.1,54.711-55.749,27.019-115.89,48.706-179.175,54.881-45.124,4.4-90.767.81-135.664-5.316C363.371,648.964,240.35,611.02,137.233,546.073,91.987,517.6,49.359,482.188,30.72,436.092s-6.71-104.455,39.467-131.725c19.1-11.281,41.931-16.37,64.29-21.16,32.911-7.034,66.341-13.98,96.042-28.292,30.674-14.782,66.989-43.373,60.919-76.1C284.923,143.734,279.7,112.9,311.423,84.371Z" transform="translate(-22.3 -51.76)"/>
    <path id="Path_820" data-name="Path 820" class="cls-2" d="M279,498.748s8.4-6.021,17.1-2.3c0,0-2.431,5.17-13.267,5.106Z" transform="translate(-70.967 -135.835)"/>
    <path id="Path_821" data-name="Path 821" class="cls-2" d="M277.628,500s-2.245,10.09,4.6,16.638c0,0,3.793-4.271-.519-14.207Z" transform="translate(-70.64 -136.739)"/>
    <path id="Path_822" data-name="Path 822" class="cls-2" d="M264,487.088s.308-8.517,19.6-6.435c0,0,.3,5.478-6.329,8.331S267.46,489.787,264,487.088Z" transform="translate(-68.123 -133.009)"/>
    <path id="Path_823" data-name="Path 823" class="cls-2" d="M261.69,488.65s-8.015,2.918-.089,20.633c0,0,5.3-1.4,5.973-8.59S265.313,491.13,261.69,488.65Z" transform="translate(-67.005 -134.587)"/>
    <path id="Path_824" data-name="Path 824" class="cls-2" d="M248.552,471.193s-1.621-13.939,18.024-13.258c0,0,1.872,12.6-14.434,16.484Z" transform="translate(-65.188 -128.759)"/>
    <path id="Path_825" data-name="Path 825" class="cls-2" d="M231.83,452.49s2.083-15.941,21.881-11.978c0,0,.6,13.7-18.51,15.633Z" transform="translate(-62.024 -125.341)"/>
    <path id="Path_826" data-name="Path 826" class="cls-2" d="M219.38,432.86s3.906-15.633,23.5-11.727c0,0-4.052,14.061-22.1,14.531Z" transform="translate(-59.664 -121.668)"/>
    <path id="Path_827" data-name="Path 827" class="cls-2" d="M207.53,413.535s3.785-16.208,22.692-12.091c0,0-5.673,15.455-21.371,14.774Z" transform="translate(-57.417 -117.927)"/>
    <path id="Path_828" data-name="Path 828" class="cls-2" d="M199.66,394.258s2.634-19.717,20.26-16.054c0,0-4.392,18.016-18.883,18.85Z" transform="translate(-55.925 -113.562)"/>
    <path id="Path_829" data-name="Path 829" class="cls-2" d="M192.09,372.147s3.3-19.9,21.192-14.831c0,0-6.224,18.923-19.855,17.513Z" transform="translate(-54.49 -109.532)"/>
    <path id="Path_830" data-name="Path 830" class="cls-2" d="M187.13,350.327s5.673-19.985,19.385-19.977c0,0-5.794,21.071-18.089,23.891Z" transform="translate(-53.55 -104.576)"/>
    <path id="Path_831" data-name="Path 831" class="cls-2" d="M183.71,329.273s6.1-24.037,17.3-22.627c0,0-4.157,18.348-16.768,26.314Z" transform="translate(-52.901 -100.071)"/>
    <path id="Path_832" data-name="Path 832" class="cls-2" d="M181.28,305.185s5.811-20.05,16.768-21.265c0,0-3.728,19.653-16.33,26.4Z" transform="translate(-52.441 -95.774)"/>
    <path id="Path_833" data-name="Path 833" class="cls-2" d="M178.76,282.558s7.44-20.139,14.685-20.868c0,0-2.812,19.653-13.834,24.094Z" transform="translate(-51.963 -91.559)"/>
    <path id="Path_834" data-name="Path 834" class="cls-2" d="M176.83,260.7s4.214-21.727,11.394-23.786c0,0-.316,17.643-10.608,25.366Z" transform="translate(-51.597 -86.861)"/>
    <path id="Path_835" data-name="Path 835" class="cls-2" d="M172.4,233.894s4.644-17.359,10.414-20.2c0,0-.389,20.26-8.915,24.313Z" transform="translate(-50.757 -82.459)"/>
    <path id="Path_836" data-name="Path 836" class="cls-2" d="M168.379,213.412,166.15,183.2s11.832,22.416,3.242,35.521Z" transform="translate(-49.572 -76.679)"/>
    <path id="Path_837" data-name="Path 837" class="cls-2" d="M154.5,178.411s-8.744-21.792-10.689-22.951c0,0,16.046,13.777,15.236,32.238Z" transform="translate(-45.337 -71.42)"/>
    <path id="Path_838" data-name="Path 838" class="cls-2" d="M244.888,474.2s-13.98-1.289-12.8,18.34c0,0,12.643,1.564,16.119-14.839Z" transform="translate(-62.059 -131.844)"/>
    <path id="Path_839" data-name="Path 839" class="cls-2" d="M227.685,454.82s-16.062.559-13.988,20.617c0,0,13.574,1.9,17.31-16.946Z" transform="translate(-58.551 -128.174)"/>
    <path id="Path_840" data-name="Path 840" class="cls-2" d="M213.752,437.122s-14.847-6.281-23.5,11.727c0,0,13.688,5.179,24.9-8.915Z" transform="translate(-54.141 -124.617)"/>
    <path id="Path_841" data-name="Path 841" class="cls-2" d="M201.676,416.426s-15.2-6.71-23.316,10.876c0,0,15.763,4.757,24.653-8.2Z" transform="translate(-51.887 -120.656)"/>
    <path id="Path_842" data-name="Path 842" class="cls-2" d="M193.868,397.336s-14.9-13.177-25.828,1.151c0,0,15.114,10.73,26.606,1.88Z" transform="translate(-49.931 -116.227)"/>
    <path id="Path_843" data-name="Path 843" class="cls-2" d="M187.032,373.894s-14.993-13.485-25.812,1.621c0,0,16.67,10.9,26.444,1.289Z" transform="translate(-48.638 -111.781)"/>
    <path id="Path_844" data-name="Path 844" class="cls-2" d="M183.134,351.071s-11.808-17.1-24.774-12.691c0,0,12.27,18.121,24.807,16.816Z" transform="translate(-48.095 -105.961)"/>
    <path id="Path_845" data-name="Path 845" class="cls-2" d="M178.848,330.227s-12.083-21.654-22.538-17.416c0,0,8.736,16.662,22.959,21.111Z" transform="translate(-47.707 -101.147)"/>
    <path id="Path_846" data-name="Path 846" class="cls-2" d="M176.807,305.3s-12.2-16.938-22.927-14.4c0,0,10.106,17.262,24.24,19.393Z" transform="translate(-47.246 -97.048)"/>
    <path id="Path_847" data-name="Path 847" class="cls-2" d="M176.282,282.443S166.6,263.285,159.32,263.39c0,0,5.033,19.207,16.484,22.351Z" transform="translate(-48.277 -91.881)"/>
    <path id="Path_848" data-name="Path 848" class="cls-2" d="M173,261.245s-10.7-19.369-18.17-19.126c0,0,5.738,16.695,17.9,20.876Z" transform="translate(-47.426 -87.849)"/>
    <path id="Path_849" data-name="Path 849" class="cls-2" d="M171.078,235.865S163.014,219.8,156.79,218.19c0,0,4.482,19.774,13.631,22.043Z" transform="translate(-47.798 -83.312)"/>
    <path id="Path_850" data-name="Path 850" class="cls-2" d="M163.668,214.049,146.09,189.38s5.211,24.815,20.187,29.4Z" transform="translate(-45.769 -77.85)"/>
    <path id="Path_851" data-name="Path 851" class="cls-2" d="M147.593,183.027S127.81,170.441,127,168.31c0,0,10.535,18.3,28.9,20.893Z" transform="translate(-42.15 -73.856)"/>
    <path id="Path_852" data-name="Path 852" class="cls-2" d="M144,174.4s-22.983-20.463-28.64-20.22c0,0,18.315.13,29.175,19.069Z" transform="translate(-39.943 -71.177)"/>
    <path id="Path_853" data-name="Path 853" class="cls-3" d="M169.623,231.3l-.81.138c-5.414-32.457-12.229-51.494-19.183-53.617l.235-.81C157.224,179.247,164.08,198.008,169.623,231.3Z" transform="translate(-46.44 -75.505)"/>
    <path id="Path_854" data-name="Path 854" class="cls-3" d="M183.165,321.13l-1.216.146c-.373-3.031-.7-6.143-.948-9.239-2.2-26.946-4.952-51.664-8.031-70.158l.673-.9c3.088,18.526,6.378,43.973,8.582,70.96C182.476,315.02,182.792,318.107,183.165,321.13Z" transform="translate(-50.865 -87.633)"/>
    <path id="Path_855" data-name="Path 855" class="cls-3" d="M284.3,483.415c-.219-.089-22.068-8.858-45.246-30.885a177.19,177.19,0,0,1-33.908-44.33c-11.111-20.593-18.38-46.153-21.452-71.13l1.3.551c6.889,56.065,33.973,93.538,55.108,113.677,22.951,21.833,44.573,30.512,44.775,30.593Z" transform="translate(-52.897 -105.85)"/>
    <g id="Group_218" data-name="Group 218" class="cls-4" transform="translate(180.082 4.871)">
      <path id="Path_856" data-name="Path 856" class="cls-2" d="M320.84,436.01s9.814-3.242,17.019,2.893c0,0-3.866,4.214-14.19.924Z" transform="translate(-258.981 -129.316)"/>
      <path id="Path_857" data-name="Path 857" class="cls-2" d="M318.9,436.23s-5.138,8.971-.559,17.246c0,0,4.862-2.942,3.736-13.712Z" transform="translate(-258.148 -129.52)"/>
      <path id="Path_858" data-name="Path 858" class="cls-2" d="M309.75,420.482s2.836-8.039,20.625-.316c0,0-1.337,5.324-8.526,6.07S312.262,424.072,309.75,420.482Z" transform="translate(-256.878 -125.839)"/>
      <path id="Path_859" data-name="Path 859" class="cls-2" d="M306.813,420.89s-8.509.405-6.224,19.669c0,0,5.487.243,8.266-6.427S309.536,424.326,306.813,420.89Z" transform="translate(-255.068 -126.612)"/>
      <path id="Path_860" data-name="Path 860" class="cls-2" d="M299.3,400.888s2.585-13.777,21.144-7.294c0,0-1.953,12.586-18.68,11.443Z" transform="translate(-254.897 -121.108)"/>
      <path id="Path_861" data-name="Path 861" class="cls-2" d="M288.94,378.074s6.726-14.587,24.426-4.927c0,0-3.5,13.25-22.327,9.417Z" transform="translate(-252.933 -116.934)"/>
      <path id="Path_862" data-name="Path 862" class="cls-2" d="M282.9,355.775s8.388-13.777,25.933-4.206c0,0-8.1,12.2-25.423,7.294Z" transform="translate(-251.788 -112.828)"/>
      <path id="Path_863" data-name="Path 863" class="cls-2" d="M277.31,333.773s8.428-14.328,25.277-4.79c0,0-10.009,13.064-24.791,7.748Z" transform="translate(-250.728 -108.567)"/>
      <path id="Path_864" data-name="Path 864" class="cls-2" d="M275.27,313.017s8.38-18.04,24.134-9.287c0,0-9.555,15.884-23.632,12.375Z" transform="translate(-250.342 -103.946)"/>
      <path id="Path_865" data-name="Path 865" class="cls-2" d="M274.69,289.636s9.069-18.016,24.637-7.853c0,0-11.565,16.208-24.158,10.811Z" transform="translate(-250.232 -99.65)"/>
      <path id="Path_866" data-name="Path 866" class="cls-2" d="M276.16,267.572s11.346-17.392,24.442-13.307c0,0-11.808,18.421-24.377,17.432Z" transform="translate(-250.51 -94.904)"/>
      <path id="Path_867" data-name="Path 867" class="cls-2" d="M278.863,246.333s12.967-21.128,23.251-16.451c0,0-9.433,16.281-23.834,20.131Z" transform="translate(-250.912 -90.272)"/>
      <path id="Path_868" data-name="Path 868" class="cls-2" d="M283.632,222.686s11.524-17.416,22.335-15.317c0,0-9.4,17.659-23.437,20.35Z" transform="translate(-251.718 -86.098)"/>
      <path id="Path_869" data-name="Path 869" class="cls-2" d="M288.224,200.2s13.088-17.019,20.22-15.544c0,0-8.534,17.926-20.374,18.875Z" transform="translate(-252.768 -81.809)"/>
      <path id="Path_870" data-name="Path 870" class="cls-2" d="M292.71,178.55s10.487-19.45,17.959-19.32c0,0-5.559,16.751-17.675,21.071Z" transform="translate(-253.648 -77.005)"/>
      <path id="Path_871" data-name="Path 871" class="cls-2" d="M296.7,151.568s9.6-15.187,15.957-16.208c0,0-6.4,19.239-15.738,20.593Z" transform="translate(-254.404 -72.48)"/>
      <path id="Path_872" data-name="Path 872" class="cls-2" d="M298.616,130.1l6.864-29.515s4.627,24.92-7.48,34.848Z" transform="translate(-254.651 -65.886)"/>
      <path id="Path_873" data-name="Path 873" class="cls-2" d="M297.549,92.553s-1.872-23.4-3.379-25.123c0,0,11.232,17.894,4.96,35.318Z" transform="translate(-253.925 -59.601)"/>
      <path id="Path_874" data-name="Path 874" class="cls-2" d="M294.555,402.566s-12.967-5.381-17.675,13.712c0,0,11.6,5.251,19.8-9.377Z" transform="translate(-250.647 -123.005)"/>
      <path id="Path_875" data-name="Path 875" class="cls-2" d="M283.76,379.111s-15.5-4.238-19.49,15.528c0,0,12.4,5.851,21.573-11.03Z" transform="translate(-248.256 -118.619)"/>
      <path id="Path_876" data-name="Path 876" class="cls-2" d="M276.233,358.209s-12.3-10.414-25.933,4.206c0,0,11.524,9.02,26.428-1.118Z" transform="translate(-245.608 -114.047)"/>
      <path id="Path_877" data-name="Path 877" class="cls-2" d="M270.916,334.8s-12.529-10.924-25.5,3.444c0,0,13.631,9.239,25.974-.486Z" transform="translate(-244.683 -109.537)"/>
      <path id="Path_878" data-name="Path 878" class="cls-2" d="M269.519,313.986s-10.309-17.019-25.009-6.6c0,0,11.24,14.75,24.847,9.725Z" transform="translate(-244.51 -104.453)"/>
      <path id="Path_879" data-name="Path 879" class="cls-2" d="M269.933,289.585s-10.309-17.335-25.123-6.119c0,0,12.675,15.4,24.855,9.1Z" transform="translate(-244.567 -99.842)"/>
      <path id="Path_880" data-name="Path 880" class="cls-2" d="M273.441,266.079s-6.183-19.831-19.871-19.45c0,0,6.321,20.957,18.68,23.437Z" transform="translate(-246.228 -93.574)"/>
      <path id="Path_881" data-name="Path 881" class="cls-2" d="M275.56,244.856s-5.089-24.272-16.33-23.332c0,0,3.388,18.51,15.641,26.995Z" transform="translate(-247.301 -88.81)"/>
      <path id="Path_882" data-name="Path 882" class="cls-2" d="M281.06,220.4s-6.613-19.807-17.61-20.576c0,0,4.514,19.491,17.375,25.731Z" transform="translate(-248.101 -84.7)"/>
      <path id="Path_883" data-name="Path 883" class="cls-2" d="M287.37,198.355s-3.55-21.168-10.535-23.235c0,0-.9,19.831,9.093,26.249Z" transform="translate(-250.634 -80.018)"/>
      <path id="Path_884" data-name="Path 884" class="cls-2" d="M290.544,177.144s-4.449-21.679-11.654-23.664c0,0,.511,17.643,10.884,25.253Z" transform="translate(-251.028 -75.915)"/>
      <path id="Path_885" data-name="Path 885" class="cls-2" d="M296.219,152.378s-2.918-17.732-8.38-21.128c0,0-1.621,20.212,6.483,25.123Z" transform="translate(-252.699 -71.701)"/>
      <path id="Path_886" data-name="Path 886" class="cls-2" d="M295.637,129.266l-9.449-28.786s-2.431,25.236,10.535,34.078Z" transform="translate(-252.377 -65.867)"/>
      <path id="Path_887" data-name="Path 887" class="cls-2" d="M289.563,94.909S274.383,76.991,274.27,74.73c0,0,4.644,20.609,21.371,28.543Z" transform="translate(-250.152 -60.985)"/>
      <path id="Path_888" data-name="Path 888" class="cls-2" d="M288.7,85.608S272.84,59.229,267.37,57.77c0,0,17.44,5.584,22.141,26.873Z" transform="translate(-248.844 -57.77)"/>
      <path id="Path_889" data-name="Path 889" class="cls-3" d="M296.187,147.507l-.81-.113c4.482-32.587,3.647-52.8-2.366-56.891l.462-.673C299.85,94.182,300.782,114.126,296.187,147.507Z" transform="translate(-253.705 -63.848)"/>
      <path id="Path_890" data-name="Path 890" class="cls-3" d="M278.848,237.436l-1.207-.219c.551-3.007,1.167-6.07,1.848-9.109,5.924-26.379,10.649-50.789,13.2-69.364l.916-.665c-2.561,18.64-6.994,43.884-12.918,70.3C280.006,231.358,279.391,234.4,278.848,237.436Z" transform="translate(-250.791 -76.787)"/>
      <path id="Path_891" data-name="Path 891" class="cls-3" d="M329.839,422.363c-.178-.146-18.429-15.017-34.037-42.952A177.051,177.051,0,0,1,276.627,327c-4.482-22.967-3.825-49.533.681-74.291l1.07.908C268.288,309.2,283,353.04,297.211,378.56c15.4,27.668,33.454,42.385,33.64,42.531Z" transform="translate(-250.021 -94.727)"/>
    </g>
    <path id="Path_892" data-name="Path 892" class="cls-5" d="M1029.5,805.86s-34.264-2.067-30.22,21.946a5.841,5.841,0,0,0,3.039,6.167s.065-1.783,3.517-1.175a15.69,15.69,0,0,0,3.72.178,7.8,7.8,0,0,0,4.555-1.88h0s9.628-3.979,13.372-19.717c0,0,2.772-3.436,2.666-4.32l-5.786,2.431s1.977,4.174.421,7.634c0,0-.186-7.48-1.3-7.294-.227.04-3.007,1.451-3.007,1.451s3.4,7.294.81,12.545c0,0,.972-8.955-1.9-12.027l-4.052,2.383s3.971,7.5,1.28,13.623c0,0,.689-9.393-2.139-13.048l-3.687,2.877s3.736,7.4,1.459,12.472c0,0-.3-10.933-2.253-11.759,0,0-3.242,2.845-3.72,4.052,0,0,2.553,5.365.972,8.2,0,0-.972-7.294-1.775-7.294,0,0-3.242,4.822-3.55,8.1a17.506,17.506,0,0,1,2.772-8.59,9.635,9.635,0,0,0-4.919,2.545s.5-3.412,5.673-3.712c0,0,2.658-3.655,3.371-3.882,0,0-5.195-.43-8.339.964,0,0,2.772-3.242,9.287-1.759l3.639-2.974s-6.832-.932-9.725.1c0,0,3.331-2.845,10.706-.77l3.963-2.366s-5.819-1.256-9.287-.81c0,0,3.663-1.977,10.454.162l2.836-1.272s-4.271-.81-5.519-.973-1.313-.478-1.313-.478a14.765,14.765,0,0,1,8.007.891S1029.608,806.24,1029.5,805.86Z" transform="translate(-207.458 -194.717)"/>
    <ellipse id="Ellipse_37" data-name="Ellipse 37" class="cls-6" cx="24.248" cy="4.101" rx="24.248" ry="4.101" transform="translate(774.198 637.247)"/>
    <path id="Path_893" data-name="Path 893" class="cls-5" d="M1113.724,727.794s-19.312-1.159-17.019,12.375a3.3,3.3,0,0,0,1.71,3.477s.041-1,1.985-.665a8.611,8.611,0,0,0,2.1.105,4.336,4.336,0,0,0,2.561-1.062h0s5.43-2.245,7.545-11.119c0,0,1.564-1.937,1.5-2.431l-3.242,1.394a5.85,5.85,0,0,1,.235,4.3s-.105-4.222-.729-4.117c-.13,0-1.694.81-1.694.81s1.913,4.1.47,7.075c0,0,.551-5.049-1.07-6.775l-2.293,1.337s2.237,4.23.721,7.683c0,0,.389-5.292-1.208-7.359l-2.075,1.621s2.1,4.174.81,7.034c0,0-.17-6.159-1.272-6.629a12.967,12.967,0,0,0-2.1,2.261s1.443,3.031.551,4.628c0,0-.551-4.109-1-4.125,0,0-1.815,2.723-2,4.587a9.9,9.9,0,0,1,1.564-4.862,5.463,5.463,0,0,0-2.78,1.434s.284-1.921,3.242-2.091a12.612,12.612,0,0,1,1.9-2.188,11.943,11.943,0,0,0-4.7.543s1.564-1.815,5.235-1l2.058-1.669s-3.858-.527-5.486.057c0,0,1.88-1.621,6.037-.438l2.237-1.337a20.447,20.447,0,0,0-5.243-.454s2.066-1.11,5.892.1l1.621-.721s-2.431-.47-3.112-.543-.746-.276-.746-.276a8.362,8.362,0,0,1,4.522.5S1113.781,728.013,1113.724,727.794Z" transform="translate(-225.955 -179.92)"/>
    <ellipse id="Ellipse_38" data-name="Ellipse 38" class="cls-6" cx="13.672" cy="2.31" rx="13.672" ry="2.31" transform="translate(860.799 562.599)"/>
    <path id="Path_894" data-name="Path 894" class="cls-5" d="M972.2,742.293s-23.324-1.41-20.568,14.936a3.979,3.979,0,0,0,2.067,4.2s0-1.208,2.391-.81a11.122,11.122,0,0,0,2.537.13,5.333,5.333,0,0,0,3.1-1.281h0s6.556-2.707,9.109-13.429c0,0,1.888-2.334,1.807-2.934l-3.931,1.678s1.345,2.845.284,5.2c0,0-.122-5.1-.883-4.976-.154,0-2.042.981-2.042.981s2.31,4.952.567,8.542c0,0,.664-6.094-1.289-8.185l-2.772,1.621s2.7,5.106.867,9.279c0,0,.47-6.394-1.451-8.915l-2.512,1.953s2.545,5.033,1,8.493c0,0-.2-7.44-1.54-8.007A15.258,15.258,0,0,0,956.4,753.5s1.734,3.655.656,5.584c0,0-.656-4.952-1.2-4.976,0,0-2.188,3.282-2.431,5.535a11.97,11.97,0,0,1,1.888-5.851,6.588,6.588,0,0,0-3.347,1.734s.34-2.326,3.89-2.529c0,0,1.807-2.488,2.293-2.642,0,0-3.533-.292-5.673.656,0,0,1.88-2.2,6.313-1.2l2.48-2.018s-4.644-.64-6.621.065c0,0,2.269-1.937,7.294-.527l2.7-1.621a24.4,24.4,0,0,0-6.329-.551s2.5-1.337,7.115.113l1.937-.794s-2.9-.567-3.752-.656-.891-.324-.891-.324a10.074,10.074,0,0,1,5.454.608S972.268,742.552,972.2,742.293Z" transform="translate(-198.443 -182.668)"/>
    <ellipse id="Ellipse_39" data-name="Ellipse 39" class="cls-6" cx="16.508" cy="2.788" rx="16.508" ry="2.788" transform="translate(741.182 577.397)"/>
    <path id="Path_895" data-name="Path 895" class="cls-7" d="M637.544,671.2l-81.293,31.452L437.428,748.581c-4.482-8.323-11.095-19.709-19.28-33.227C390.01,668.715,343.444,596.174,302,532.427,255.287,460.6,215.09,399.949,215.09,399.949l29.1-8.436L481.9,322.57Z" transform="translate(-58.85 -103.101)"/>
    <path id="Path_896" data-name="Path 896" class="cls-8" d="M639.544,664.2l-81.293,31.452L439.428,741.581c-4.482-8.323-11.095-19.709-19.28-33.227C392.01,661.715,345.444,589.175,304,525.427,257.287,453.6,217.09,392.949,217.09,392.949l29.1-8.436L483.9,315.57Z" transform="translate(-59.23 -101.774)"/>
    <path id="Path_897" data-name="Path 897" class="cls-7" d="M646.352,664.2l-81.293,31.452a611.382,611.382,0,0,1-138.1,12.7c-28.138-46.639-74.7-119.18-116.149-182.927L253,384.512,490.711,315.57Z" transform="translate(-66.038 -101.774)"/>
    <path id="Path_898" data-name="Path 898" class="cls-2" d="M704.179,636.525s-126.3,74.7-314.847,57.848L239,327.911l72.038-12.375L560.063,272.77l141.3,356.672Z" transform="translate(-63.383 -93.66)"/>
    <path id="Path_899" data-name="Path 899" class="cls-7" d="M718.218,629.442c-29.742,1.459-64.136,1.321-98.757-2.8-37.458-4.392-75.093-13.485-107.429-30.131-27-13.915-50.092-29.029-70.231-47.174-52.361-47.1-84.77-114.479-113.872-233.8L576.955,272.77Z" transform="translate(-80.243 -93.66)"/>
    <path id="Path_900" data-name="Path 900" class="cls-8" d="M806.9,583.989S713.771,602.239,619.066,591c-37.457-4.417-75.134-13.485-107.429-30.131-27-13.915-50.092-29.029-70.231-47.174-64.833-58.35-99.041-147.674-134.326-328.146,0,0,154.789,37.352,307.723-44.468C614.8,141.08,666.386,463.034,806.9,583.989Z" transform="translate(-76.29 -68.694)"/>
    <path id="Path_901" data-name="Path 901" class="cls-7" d="M650.489,670.059c-37.457-4.417-75.134-13.485-107.429-30.131-27-13.915-50.092-29.029-70.231-47.174,55.181-4.482,63.115-34.653,63.115-34.653C576.855,623.03,650.489,670.059,650.489,670.059Z" transform="translate(-107.714 -147.754)"/>
    <path id="Path_902" data-name="Path 902" class="cls-9" d="M405.85,269.7S489,279.19,566.823,235.46l5.333,17.124S497.7,289.709,405.85,289.709Z" transform="translate(-95.015 -86.586)"/>
    <path id="Path_903" data-name="Path 903" class="cls-10" d="M405.85,370.035s82.662-6.67,174.685-51.145l3.112,7.115s-33.867,42.62-177.8,53.755Z" transform="translate(-95.015 -102.403)"/>
    <path id="Path_904" data-name="Path 904" class="cls-10" d="M417.94,410.717s82.662-6.67,174.685-51.137l3.112,7.115s-33.859,42.66-177.8,53.8Z" transform="translate(-97.308 -110.118)"/>
    <path id="Path_905" data-name="Path 905" class="cls-10" d="M429,454.567s82.662-6.67,174.685-51.137l3.112,7.115s-33.908,42.636-177.8,53.8Z" transform="translate(-99.404 -118.431)"/>
    <path id="Path_906" data-name="Path 906" class="cls-10" d="M442.13,492.147s82.663-6.67,174.685-51.137l3.112,7.115s-33.859,42.644-177.8,53.812Z" transform="translate(-101.894 -125.555)"/>
    <path id="Path_907" data-name="Path 907" class="cls-7" d="M454.23,532.867s82.662-6.67,174.685-51.137l3.112,7.115s-33.867,42.644-177.8,53.8Z" transform="translate(-104.187 -133.275)"/>
    <rect id="Rectangle_203" data-name="Rectangle 203" class="cls-9" width="24.434" height="24.434" transform="translate(499.176 202.166) rotate(-18.8)"/>
    <rect id="Rectangle_204" data-name="Rectangle 204" class="cls-9" width="24.434" height="24.434" transform="translate(512.335 236.578) rotate(-18.8)"/>
    <rect id="Rectangle_205" data-name="Rectangle 205" class="cls-9" width="24.434" height="24.434" transform="translate(533.43 302.788) rotate(-18.8)"/>
    <rect id="Rectangle_206" data-name="Rectangle 206" class="cls-9" width="24.434" height="24.434" transform="translate(545.534 338.324) rotate(-18.8)"/>
    <rect id="Rectangle_207" data-name="Rectangle 207" class="cls-9" width="24.434" height="24.434" transform="translate(523.064 272.325) rotate(-18.8)"/>
    <path id="Path_918" data-name="Path 918" class="cls-11" d="M955.5,576.89" transform="translate(-199.22 -151.316)"/>
    <path id="Path_941" data-name="Path 941" class="cls-12" d="M719.008,475.42a2.471,2.471,0,0,1,.665.729,1.045,1.045,0,0,1,0,1.126,2.538,2.538,0,0,1-.632.446,2.067,2.067,0,0,0-.924,1.564l-2.5-.251Z" transform="translate(-153.743 -132.079)"/>
    <path id="Path_942" data-name="Path 942" class="cls-13" d="M654.859,307.446l-10.932-5.333a1.321,1.321,0,0,1-.608-1.767l1.159-2.383a1.313,1.313,0,0,1,1.767-.608l7.367,3.59,7.691-15.771a1.329,1.329,0,0,1,1.767-.616l2.383,1.167a1.313,1.313,0,0,1,.608,1.767l-9.433,19.345a1.321,1.321,0,0,1-1.767.608Z" transform="translate(-140.01 -95.87)"/>
    <path id="Path_943" data-name="Path 943" class="cls-13" d="M684.329,391.612,673.4,386.279a1.321,1.321,0,0,1-.608-1.767l1.159-2.383a1.329,1.329,0,0,1,1.775-.608l7.359,3.59,7.683-15.787a1.329,1.329,0,0,1,1.767-.616l2.375,1.167a1.321,1.321,0,0,1,.616,1.767l-9.433,19.345a1.337,1.337,0,0,1-1.775.608Z" transform="translate(-145.597 -111.824)"/>
    <path id="Path_944" data-name="Path 944" class="cls-13" d="M671.1,350.121l-10.933-5.332a1.329,1.329,0,0,1-.616-1.767l1.167-2.383a1.313,1.313,0,0,1,1.767-.608l7.367,3.59,7.691-15.8a1.321,1.321,0,0,1,1.767-.608l2.383,1.159a1.337,1.337,0,0,1,.608,1.775l-9.441,19.361a1.321,1.321,0,0,1-1.767.608Z" transform="translate(-143.088 -103.957)"/>
    <path id="Path_945" data-name="Path 945" class="cls-13" d="M697.129,429.616,686.2,424.283a1.321,1.321,0,0,1-.608-1.767l1.159-2.383a1.321,1.321,0,0,1,1.767-.608l7.367,3.59,7.691-15.771a1.337,1.337,0,0,1,1.775-.616l2.374,1.167a1.313,1.313,0,0,1,.608,1.767L698.9,429.008A1.337,1.337,0,0,1,697.129,429.616Z" transform="translate(-148.024 -119.032)"/>
  </g>
</svg>
