<svg id="sign-up" xmlns="http://www.w3.org/2000/svg" xmlns:xlink="http://www.w3.org/1999/xlink" viewBox="0 0 834.049 659">
  <defs>
    <style>
      .cls-1 {
        fill: #f2f2f2;
      }

      .cls-2 {
        fill: #3f3d56;
      }

      .cls-3, .cls-5 {
        opacity: 0.1;
      }

      .cls-4 {
        fill: none;
        stroke: #3f3d56;
        stroke-miterlimit: 10;
        stroke-width: 2px;
      }

      .cls-6 {
        fill: gray;
      }

      .cls-7 {
        fill: #E86724;
      }

      .cls-8 {
        fill: url(#linear-gradient);
      }

      .cls-9 {
        fill: #2f2e41;
      }

      .cls-10 {
        fill: #fbbebe;
      }
    </style>
    <linearGradient id="linear-gradient" x1="0.459" y1="1.033" x2="0.459" y2="0.028" gradientUnits="objectBoundingBox">
      <stop offset="0" stop-color="gray" stop-opacity="0.251"/>
      <stop offset="0.54" stop-color="gray" stop-opacity="0.122"/>
      <stop offset="1" stop-color="gray" stop-opacity="0.102"/>
    </linearGradient>
  </defs>
  <path id="Path_786" data-name="Path 786" class="cls-1" d="M594.649,232.993c38.447-6.747,83.127-5.574,131.306,0-9.774-55.432-10.221-109.725,0-162.7H594.649a458.569,458.569,0,0,0,0,162.7Z" transform="translate(-180.997 -61.005)"/>
  <rect id="Rectangle_193" data-name="Rectangle 193" class="cls-2" width="45.675" height="14.986" transform="translate(498.524 14.986) rotate(180)"/>
  <path id="Path_787" data-name="Path 787" class="cls-3" d="M473.449,613.923c38.447-6.747,83.127-5.574,131.306,0-9.774-55.432-10.221-109.725,0-162.7H473.449a458.566,458.566,0,0,0,0,162.7Z" transform="translate(-162.008 -120.687)"/>
  <path id="Path_788" data-name="Path 788" class="cls-1" d="M466.449,604.923c38.447-6.747,83.127-5.574,131.306,0-9.774-55.432-10.221-109.725,0-162.7H466.449a458.567,458.567,0,0,0,0,162.7Z" transform="translate(-160.912 -119.277)"/>
  <rect id="Rectangle_194" data-name="Rectangle 194" class="cls-2" width="45.675" height="14.986" transform="translate(390.392 328.644) rotate(180)"/>
  <path id="Path_789" data-name="Path 789" class="cls-4" d="M334,293.222S384.928,149.173,498.389,147.9" transform="translate(-141.3 -73.164)"/>
  <path id="Path_790" data-name="Path 790" class="cls-2" d="M538.288,146.669c-4.832,1.687-10.837,4.562-14.6,7.691l3.087-7.953-2.715-8.087C527.67,141.617,533.54,144.8,538.288,146.669Z" transform="translate(-171.02 -71.664)"/>
  <path id="Path_791" data-name="Path 791" class="cls-4" d="M338.987,385.22s-4.6,115.907,61.613,131.685" transform="translate(-142.071 -110.346)"/>
  <path id="Path_792" data-name="Path 792" class="cls-2" d="M421.116,541.316c-5.018.978-11.368,3.011-15.526,5.583l4.158-7.447-1.569-8.383C411.3,534.831,416.671,538.786,421.116,541.316Z" transform="translate(-152.516 -133.197)"/>
  <path id="Path_793" data-name="Path 793" class="cls-4" d="M355,335.987S713.093,276.3,774.546,350.138" transform="translate(-144.59 -99.063)"/>
  <path id="Path_794" data-name="Path 794" class="cls-2" d="M856.279,364.162c-4.132-3.011-9.943-6.291-14.649-7.59l8.281-2.016,5.06-6.856C854.356,352.558,855.115,359.186,856.279,364.162Z" transform="translate(-220.833 -104.468)"/>
  <g id="Group_216" data-name="Group 216" class="cls-5" transform="translate(0 603.341)">
    <ellipse id="Ellipse_35" data-name="Ellipse 35" class="cls-6" cx="417.025" cy="27.83" rx="417.025" ry="27.83"/>
  </g>
  <path id="Path_795" data-name="Path 795" class="cls-3" d="M996.259,538.3c-34.062,19.059-67.98,48.162-101.823,82.9-27.425-49.149-61.344-91.535-102.726-126.17l101.823-82.9A458.669,458.669,0,0,1,996.259,538.3Z" transform="translate(-213.011 -114.563)"/>
  <path id="Path_796" data-name="Path 796" class="cls-1" d="M998.259,530.3c-34.062,19.059-67.98,48.162-101.823,82.9-27.425-49.149-61.344-91.535-102.726-126.17l101.823-82.9A458.667,458.667,0,0,1,998.259,530.3Z" transform="translate(-213.325 -113.309)"/>
  <rect id="Rectangle_195" data-name="Rectangle 195" class="cls-2" width="45.675" height="14.986" transform="matrix(0.775, -0.631, 0.631, 0.775, 610.56, 337.219)"/>
  <rect id="Rectangle_196" data-name="Rectangle 196" class="cls-7" width="80.959" height="10.963" transform="matrix(0.775, -0.631, 0.631, 0.775, 633.161, 393.397)"/>
  <path id="Path_797" data-name="Path 797" class="cls-8" d="M1016.674,746.889a8.252,8.252,0,0,0-1.83-2.041c-3.685-3.474-5.4-8.594-6.308-13.594s-1.172-10.12-2.631-15.028a49.918,49.918,0,0,0-2.969-7.312c-.843-1.8-1.906-5.338-3.449-6.595a2.385,2.385,0,0,0-1.063-.523,12.4,12.4,0,0,0-3.053-4.056c-2.412-2.184-5.355-3.922-6.966-6.747a15.175,15.175,0,0,0-1.628-2.783c-1.088-1.2-2.808-1.687-3.812-2.952-1.307-1.636-1.012-3.972-.843-6.063s0-4.579-1.8-5.667c-1.079-.666-2.471-.607-3.593-1.189-1.687-.843-2.353-2.977-2.319-4.875s.624-3.744.776-5.633c.472-6.038-3.508-12.043-1.973-17.9.582-2.218,1.914-4.149,2.9-6.207a13.583,13.583,0,0,0,.843-2.142,29.817,29.817,0,0,0,8.214,1.973c-4.647-10.415-3.466-22.534-5.633-33.733l.278-.388a17.525,17.525,0,0,0,3.559-9.994c0-4.217-1.948-8.071-2.825-12.144-.75-3.474-.717-7.092-1.687-10.508a31.743,31.743,0,0,0-2.665-6.089q-1.577-2.918-3.314-5.751-1.619-5.364-3.247-10.727c-1.518-5.06-3.078-10.12-6.03-14.455-1.079-1.594-1.408-4.807-3.07-5.777a7.43,7.43,0,0,0-4.385-.759c-2.344-1.316-4.4-3.213-4.7-5.811a5.609,5.609,0,0,1,.169-1.687h.287c3.711-.346,5.591-3.618,7.522-6.477,3.12-4.647,1.931-10.921,0-16.2a11.032,11.032,0,0,0-2.53-4.461c-2.707-2.53-6.991-1.965-10.482-3.188a33.857,33.857,0,0,0-3.466-1.307,10.317,10.317,0,0,0-6.873,1.282,70.587,70.587,0,0,1-6.333,3.306c-2.226.852-4.976,1.51-5.524,3.795a4.218,4.218,0,0,0,.186,2.3,8.6,8.6,0,0,0,2.606,3.753,15.028,15.028,0,0,0,9.167,20.94c.641,1.02,1.24,2.066,1.788,3.146.978,1.889,1.8,4.115,1.467,6.139a18.839,18.839,0,0,0-1.687,2.058c-2.42,3.373-3.8,7.337-5.06,11.275a119.208,119.208,0,0,0-4.073,15.416c-2.058,4.368-4.571,8.551-6.063,13.148a29.685,29.685,0,0,1-7.91-1.054l-7.118-1.619c-2.479-.557-5.06-1.172-7-2.8-1.029-.843-1.83-1.965-2.876-2.808s-3.146-1.813-4.293-1.122a3.376,3.376,0,0,0-.582.447c-1.046-2.117-3.609,3.281-4.824,1.282-1.737-2.876-7.834.455-11.124-.084a7.8,7.8,0,0,0-5.726,1.324c-1.923,1.375-3.129,4.217-1.687,6.139a10.549,10.549,0,0,0,1.172,1.206,24.107,24.107,0,0,1,2.606,3.609c2.6,3.736,8.577.439,13.114,1.3-.1.287,3.179-6.823,3.078-6.527-.6,1.746-1.872,3.871-1.552,5.693l31.658,10.837a19.276,19.276,0,0,0,6.375,1.4,10.715,10.715,0,0,0,2.53-.329v1.678c.084,11.123-1.687,22.179-2.016,33.294-.059,2.024,0,4.217,1.282,5.8,1.434,1.737,3.98,2.075,6.2,1.687a14.045,14.045,0,0,0,1.568-.346,58.332,58.332,0,0,1,1.619,8.518l2.1,14.978a22.849,22.849,0,0,1,.329,4.672c-.245,3.525-2.108,6.7-3.458,9.96s-2.15,7.16-.379,10.213c.557.944,1.324,1.754,1.822,2.732a11.047,11.047,0,0,1,.843,4.782q.194,6.831.371,13.645a1.594,1.594,0,0,0-1.063.219c-1.754,1.358-1.56,7.868-1.687,9.884-.135,3.373,0,6.814-.185,10.221a61,61,0,0,1-2.26,13.6,8.676,8.676,0,0,1-1.931,3.888,8.315,8.315,0,0,1-3.432,1.779,39.2,39.2,0,0,1-13,1.763c-1.779-.051-3.635-.228-5.288.455s-2.985,2.53-2.387,4.217c.514,1.417,2.075,2.091,3.483,2.623a55.9,55.9,0,0,1,9.277,4.217,25.99,25.99,0,0,0,3.584,2.041,18.472,18.472,0,0,0,3.694.911l14.952,2.53c3.061.531,6.747.843,8.695-1.687a7.652,7.652,0,0,0,1.155-4.95c-.084-3.373-.759-6.814-.321-10.179a31.414,31.414,0,0,1,1.569-5.853L958,725.806a69.963,69.963,0,0,0,3.6-13.578c.211-1.687.194-3.6-1.1-4.664a3.114,3.114,0,0,0-1.113-.573c-.051-4.065-.582-8.13-.354-12.195.059-1.02.16-2.032.245-3.044a14.523,14.523,0,0,1,2.083,2.463c1.442,2.252,1.974,5.237,4.175,6.747,1.872,1.273,4.647,1.214,5.962,3.07a8.724,8.724,0,0,1,.944,2.277,16.336,16.336,0,0,0,3.373,5.364,27.216,27.216,0,0,0,2.083,5.347l3.711,7.843a89.454,89.454,0,0,0,4.217,8.239,23.4,23.4,0,0,1,2.825,5.448c1.189,4.174-.751,8.745-3.82,11.807s-7.118,4.832-11.107,6.477a3.021,3.021,0,0,0-1.13.675,2.183,2.183,0,0,0-.514,1.467,4.77,4.77,0,0,0,3.441,4.217,13.116,13.116,0,0,0,5.76.211c10.778-1.307,21.522-3.947,31.051-9.175a11.139,11.139,0,0,0,3.7-2.859,4.326,4.326,0,0,0,.633-4.478Z" transform="translate(-225.086 -126.437)"/>
  <path id="Path_798" data-name="Path 798" class="cls-9" d="M988.407,569.21q2.7,4.132,5.06,8.484a31.348,31.348,0,0,1,2.665,6.038c.978,3.373.953,6.974,1.687,10.423.843,4.048,2.817,7.91,2.817,12.051a17.339,17.339,0,0,1-3.559,9.917,47.457,47.457,0,0,1-7.438,7.683,158.278,158.278,0,0,1-10.525-51.62,18.134,18.134,0,0,1,.793-7.261c.548-1.425,3.179-5.355,4.874-3.812.616.565.776,3.1,1.155,3.955a31.09,31.09,0,0,0,2.471,4.141Z" transform="translate(-242.367 -137.849)"/>
  <path id="Path_799" data-name="Path 799" class="cls-3" d="M988.407,569.21q2.7,4.132,5.06,8.484a31.348,31.348,0,0,1,2.665,6.038c.978,3.373.953,6.974,1.687,10.423.843,4.048,2.817,7.91,2.817,12.051a17.339,17.339,0,0,1-3.559,9.917,47.457,47.457,0,0,1-7.438,7.683,158.278,158.278,0,0,1-10.525-51.62,18.134,18.134,0,0,1,.793-7.261c.548-1.425,3.179-5.355,4.874-3.812.616.565.776,3.1,1.155,3.955a31.09,31.09,0,0,0,2.471,4.141Z" transform="translate(-242.367 -137.849)"/>
  <path id="Path_800" data-name="Path 800" class="cls-10" d="M880.509,581.655c-3.3-.54-6.957-.278-9.521,1.864a7.859,7.859,0,0,0-2.732,5.195c-.219,2.344,1.138,5.111,3.483,5.3a11.114,11.114,0,0,0,1.687-.11,25.192,25.192,0,0,1,4.419.363,18.038,18.038,0,0,0,15.374-6.207c2.016-2.488-.641-3.618-3.019-4.124C886.944,583.241,883.765,582.195,880.509,581.655Z" transform="translate(-225.001 -141.085)"/>
  <path id="Path_801" data-name="Path 801" class="cls-2" d="M949.071,668.035l2.091,14.859a22.523,22.523,0,0,1,.32,4.638c-.244,3.5-2.108,6.645-3.449,9.884s-2.159,7.109-.38,10.12c.548.936,1.316,1.737,1.813,2.707A10.962,10.962,0,0,1,950.31,715l.573,21.083a132.68,132.68,0,0,0,19.548-.1,1.1,1.1,0,0,0,.708-.228,1.13,1.13,0,0,0,.245-.759c.287-4.933-.573-9.875-.3-14.809.1-1.8.354-3.609.388-5.414.1-7.345-3.525-14.539-2.429-21.808a48.5,48.5,0,0,1,1.349-5.423c3.466-12.608,2.732-25.941,1.965-39a.927.927,0,0,0-.169-.6.954.954,0,0,0-.455-.244A24.018,24.018,0,0,0,950,651.844c-.919.742-3.238,1.451-3.846,2.336-.843,1.24.261,2.462.751,3.778A47.863,47.863,0,0,1,949.071,668.035Z" transform="translate(-237.16 -151.313)"/>
  <path id="Path_802" data-name="Path 802" class="cls-9" d="M949.071,668.035l2.091,14.859a22.523,22.523,0,0,1,.32,4.638c-.244,3.5-2.108,6.645-3.449,9.884s-2.159,7.109-.38,10.12c.548.936,1.316,1.737,1.813,2.707A10.962,10.962,0,0,1,950.31,715l.573,21.083a132.68,132.68,0,0,0,19.548-.1,1.1,1.1,0,0,0,.708-.228,1.13,1.13,0,0,0,.245-.759c.287-4.933-.573-9.875-.3-14.809.1-1.8.354-3.609.388-5.414.1-7.345-3.525-14.539-2.429-21.808a48.5,48.5,0,0,1,1.349-5.423c3.466-12.608,2.732-25.941,1.965-39a.927.927,0,0,0-.169-.6.954.954,0,0,0-.455-.244A24.018,24.018,0,0,0,950,651.844c-.919.742-3.238,1.451-3.846,2.336-.843,1.24.261,2.462.751,3.778A47.863,47.863,0,0,1,949.071,668.035Z" transform="translate(-237.16 -151.313)"/>
  <path id="Path_803" data-name="Path 803" class="cls-9" d="M990.174,662.609c-.987,2.049-2.311,3.964-2.9,6.165-1.535,5.81,2.437,11.807,1.965,17.76-.152,1.872-.734,3.711-.776,5.591s.649,3.964,2.319,4.832c1.122.582,2.53.523,3.584,1.181,1.779,1.079,1.982,3.559,1.8,5.625s-.472,4.394.843,6.021c1,1.257,2.724,1.737,3.8,2.926a14.546,14.546,0,0,1,1.628,2.758c1.611,2.808,4.554,4.537,6.966,6.7s4.453,5.456,3.373,8.509c-.793,2.252-3.019,3.626-5.161,4.689a54.734,54.734,0,0,1-12.287,4.335,2.86,2.86,0,0,1-1.408.076,3.01,3.01,0,0,1-1.231-.843c-2.488-2.429-5.06-4.984-6.207-8.273a8.61,8.61,0,0,0-.945-2.26c-1.316-1.838-4.09-1.779-5.962-3.044-2.193-1.493-2.724-4.461-4.158-6.7s-3.534-3.559-5.06-5.532c-2.581-3.272-3.213-7.641-5.06-11.376a52.92,52.92,0,0,1-2.412-4.723,25.625,25.625,0,0,1-1.155-6.106c-1.189-9.842-4.217-19.768-2.311-29.516.422-2.15,1.071-4.217,1.341-6.426.464-3.829-.27-7.733.3-11.554a3.145,3.145,0,0,1,1.273-2.446,3.373,3.373,0,0,1,1.45-.3,100.01,100.01,0,0,1,14.994.337c2.53.253,5.364.767,6.882,2.825,1.29,1.771,1.223,4.149,1.636,6.3.514,2.64,1.855,4.09,3.264,6.165S991.245,660.467,990.174,662.609Z" transform="translate(-239.192 -150.348)"/>
  <path id="Path_804" data-name="Path 804" class="cls-9" d="M963.828,747.368c1.332,0,2.808-.084,3.837.767,1.282,1.046,1.3,2.977,1.1,4.621a69.5,69.5,0,0,1-3.609,13.493l-4.487,13.156a31.2,31.2,0,0,0-1.569,5.81c-.439,3.373.236,6.747.32,10.12,0,1.687-.11,3.559-1.164,4.908-1.906,2.454-5.625,2.167-8.686,1.687l-14.935-2.53a17.785,17.785,0,0,1-3.694-.911,24.186,24.186,0,0,1-3.584-2.016,55.136,55.136,0,0,0-9.277-4.217c-1.4-.531-2.969-1.2-3.474-2.606-.6-1.687.734-3.534,2.387-4.217a12.642,12.642,0,0,1,5.288-.447,39.4,39.4,0,0,0,12.987-1.763,8.3,8.3,0,0,0,3.424-1.763,8.518,8.518,0,0,0,1.931-3.854,59.245,59.245,0,0,0,2.26-13.493c.177-3.373.059-6.747.194-10.12.084-2.007-.11-8.433,1.645-9.808,1.341-1.029,6.856,1.8,8.669,2.226a42.165,42.165,0,0,0,10.44.953Z" transform="translate(-232.243 -166.553)"/>
  <path id="Path_805" data-name="Path 805" class="cls-9" d="M1025.03,756.425c1.459,4.841,1.687,9.943,2.631,14.91s2.614,10.044,6.3,13.493a8.174,8.174,0,0,1,1.83,2.024,4.267,4.267,0,0,1-.632,4.411,11.157,11.157,0,0,1-3.7,2.834c-9.521,5.2-20.24,7.818-31.043,9.116a12.953,12.953,0,0,1-5.751-.2c-1.839-.624-3.466-2.277-3.432-4.217a2.134,2.134,0,0,1,.506-1.451,3.05,3.05,0,0,1,1.138-.675c3.981-1.628,8.02-3.373,11.1-6.426s5.009-7.59,3.82-11.688a22.77,22.77,0,0,0-2.825-5.406,91.507,91.507,0,0,1-4.217-8.18l-3.711-7.784a20.413,20.413,0,0,1-2.37-7.135,34.089,34.089,0,0,0,13.679-2.193,21.287,21.287,0,0,0,5.625-3.373c1.434-1.2,2.741-3.432,4.672-1.864,1.552,1.248,2.53,4.756,3.441,6.544A48.331,48.331,0,0,1,1025.03,756.425Z" transform="translate(-244.271 -166.257)"/>
  <path id="Path_806" data-name="Path 806" class="cls-10" d="M963.653,528.8c.371,3.23,3.508,5.372,6.5,6.645l-18.95,6.08c1.223-2.344.236-5.2-.978-7.59a42.238,42.238,0,0,0-3.373-5.4c-.186-.27-.4-.6-.261-.894a.944.944,0,0,1,.531-.413c3.9-1.737,7.91-3.534,12.169-4.166,1.231-.185,3.559-.675,4.478.573S963.475,527.305,963.653,528.8Z" transform="translate(-237.271 -131.904)"/>
  <path id="Path_807" data-name="Path 807" class="cls-3" d="M963.653,528.8c.371,3.23,3.508,5.372,6.5,6.645l-18.95,6.08c1.223-2.344.236-5.2-.978-7.59a42.238,42.238,0,0,0-3.373-5.4c-.186-.27-.4-.6-.261-.894a.944.944,0,0,1,.531-.413c3.9-1.737,7.91-3.534,12.169-4.166,1.231-.185,3.559-.675,4.478.573S963.475,527.305,963.653,528.8Z" transform="translate(-237.271 -131.904)"/>
  <circle id="Ellipse_36" data-name="Ellipse 36" class="cls-10" cx="14.859" cy="14.859" r="14.859" transform="translate(700.509 369.798)"/>
  <path id="Path_808" data-name="Path 808" class="cls-9" d="M938.3,641.017c1.442,1.687,3.98,2.058,6.2,1.687,5.186-.843,9.428-4.664,14.505-6.047,6.224-1.687,12.81.489,18.688,3.137s11.722,5.861,18.148,6.367c-5.811-12.953-2.488-28.547-8.045-41.61-1.358-3.2-3.255-6.274-3.559-9.732-.38-4.293,1.763-8.433,2.091-12.7.3-3.8-.843-7.59-1.94-11.208q-2.032-6.679-4.065-13.367c-1.518-4.984-3.078-10.044-6.021-14.336-1.088-1.577-1.417-4.765-3.07-5.726-3.609-2.083-9.083.548-13,.692s-7.48,2.926-9.766,6.064c-2.42,3.373-3.795,7.286-5.06,11.2a106.192,106.192,0,0,0-4.495,17.9c-.127.911-.236,1.822-.321,2.741-.843,8.661.388,17.372.455,26.067v.059c.084,11.039-1.687,22.011-2.016,33.042C937,637.306,937,639.473,938.3,641.017Z" transform="translate(-235.779 -134.077)"/>
  <path id="Path_809" data-name="Path 809" class="cls-3" d="M939.281,603.775a19.1,19.1,0,0,0,7.8-4.664,32.89,32.89,0,0,0,5.178-5.861,42.276,42.276,0,0,0,4.461-9.42,108.921,108.921,0,0,0,5.9-27.214c.219-2.53.287-5.237-1.223-7.244a6.106,6.106,0,0,0-7.379-1.8c-1.99.978-3.281,2.943-4.478,4.815a62.446,62.446,0,0,0-6.283,11.655c-.675,1.839-1.172,3.736-1.83,5.583a52.3,52.3,0,0,1-2.311,5.338c-.127.911-.236,1.822-.32,2.741C938.016,586.368,939.214,595.072,939.281,603.775Z" transform="translate(-236.015 -135.695)"/>
  <path id="Path_810" data-name="Path 810" class="cls-9" d="M953.967,547.472c1.51,2.007,1.442,4.748,1.231,7.244a109.084,109.084,0,0,1-5.9,27.223,41.686,41.686,0,0,1-4.461,9.411,32.608,32.608,0,0,1-5.178,5.861c-2.867,2.623-6.359,4.95-10.246,4.993a19.752,19.752,0,0,1-6.376-1.392L891.4,590.06c-.32-1.8.953-3.9,1.552-5.642l1.687-5.009c.481-1.383,1.037-2.867,2.294-3.618s3.247.278,4.293,1.1,1.838,1.94,2.867,2.791c1.948,1.619,4.52,2.218,7,2.775l7.109,1.6a30.023,30.023,0,0,0,7.91,1.046c1.982-6.047,5.752-11.385,7.885-17.381.658-1.847,1.155-3.744,1.838-5.574a61.443,61.443,0,0,1,6.283-11.655c1.189-1.881,2.479-3.846,4.478-4.815a6.08,6.08,0,0,1,7.371,1.788Z" transform="translate(-228.622 -135.398)"/>
  <path id="Path_811" data-name="Path 811" class="cls-9" d="M955.488,514.844a7.591,7.591,0,0,0-.894-2.783,2.353,2.353,0,0,0-2.53-1.113c-1.484.464-1.982,2.766-3.534,2.842-1.046.051-1.8-1.012-2.125-2.016a6.118,6.118,0,0,0-1.29-2.834,4.79,4.79,0,0,0-1.838-.843c-3.6-1.138-7.32-3.247-8.518-6.831a4.074,4.074,0,0,1-.194-2.285c.548-2.269,3.373-2.943,5.524-3.77s4.217-2.218,6.325-3.272a10.449,10.449,0,0,1,6.873-1.282,35.893,35.893,0,0,1,3.466,1.3c3.491,1.206,7.767.641,10.474,3.162a10.906,10.906,0,0,1,2.53,4.427c1.889,5.237,3.087,11.461-.042,16.074-1.931,2.842-3.8,6.089-7.514,6.426C957.883,522.425,956.171,518.487,955.488,514.844Z" transform="translate(-235.38 -126.838)"/>
  <g id="Group_217" data-name="Group 217" class="cls-5" transform="translate(699.136 369.351)">
    <path id="Path_812" data-name="Path 812" d="M948.9,511.047a6.232,6.232,0,0,0-1.282-2.834,4.789,4.789,0,0,0-1.838-.843c-3.609-1.138-7.32-3.247-8.526-6.831a4.149,4.149,0,0,1-.186-2.285,3.005,3.005,0,0,1,.447-1c-1.375.6-2.572,1.392-2.909,2.791a4.074,4.074,0,0,0,.194,2.285c1.2,3.584,4.917,5.692,8.518,6.831a4.791,4.791,0,0,1,1.839.843,6.247,6.247,0,0,1,1.29,2.834c.337,1,1.079,2.066,2.125,2.016s1.552-1,2.218-1.813C949.869,512.927,949.2,511.966,948.9,511.047Z" transform="translate(-934.523 -497.25)"/>
    <path id="Path_813" data-name="Path 813" d="M968.064,523.7c-4.335.4-6.047-3.542-6.747-7.185a7.3,7.3,0,0,0-.843-2.774,2.361,2.361,0,0,0-2.53-1.122c-.8.253-1.316,1.046-1.864,1.687a2.53,2.53,0,0,1,1.906,1.172,7.589,7.589,0,0,1,.894,2.783c.683,3.643,2.4,7.59,6.747,7.185a6.915,6.915,0,0,0,4.453-2.3,6.283,6.283,0,0,1-2.016.557Z" transform="translate(-937.9 -499.65)"/>
  </g>
  <path id="Path_814" data-name="Path 814" class="cls-1" d="M335,411.833c-38.439-6.747-83.127-5.566-131.306,0,9.774-55.423,10.23-109.717,0-162.7H335a458.568,458.568,0,0,1,0,162.7Z" transform="translate(-120.884 -89.025)"/>
  <rect id="Rectangle_197" data-name="Rectangle 197" class="cls-2" width="45.675" height="14.986" transform="translate(129.265 150.829)"/>
  <rect id="Rectangle_198" data-name="Rectangle 198" class="cls-7" width="80.959" height="10.963" transform="translate(327.21 365.523)"/>
  <rect id="Rectangle_199" data-name="Rectangle 199" class="cls-7" width="80.959" height="10.963" transform="translate(327.21 388.292)"/>
  <rect id="Rectangle_200" data-name="Rectangle 200" class="cls-7" width="80.959" height="10.963" transform="translate(435.156 36.626)"/>
  <rect id="Rectangle_201" data-name="Rectangle 201" class="cls-7" width="80.959" height="10.963" transform="translate(435.156 59.395)"/>
  <rect id="Rectangle_202" data-name="Rectangle 202" class="cls-7" width="80.959" height="10.963" transform="translate(111.319 190.111)"/>
  <path id="Path_815" data-name="Path 815" class="cls-7" d="M222.632,775.259l16.141-9.487a38.792,38.792,0,0,0-8.256-9.875l-30.453,9.47,23.866-14.033a38.793,38.793,0,0,0-57.43,34.028c0,21.429,17.364,22.171,38.793,22.171s38.793-.742,38.793-22.171a38.582,38.582,0,0,0-3.331-15.736Z" transform="translate(-115.057 -166.96)"/>
  <path id="Path_816" data-name="Path 816" class="cls-3" d="M226.734,800.708a30.2,30.2,0,0,0-5.718-4.495c-2.935-1.948-5.962-3.93-9.42-4.6-3.036-.573-6.165-.084-9.277-.261a21.682,21.682,0,0,1-14.176-6.494c-2.2-2.285-3.938-5.06-6.586-6.823a14.394,14.394,0,0,0-9.875-1.813,24.516,24.516,0,0,0-2.918.6,38.625,38.625,0,0,0-2.294,13.156c0,21.429,17.364,22.171,38.793,22.171,10.4,0,19.835-.177,26.8-2.808l-1.138-2.133a30.266,30.266,0,0,0-4.191-6.5Z" transform="translate(-115.052 -171.579)"/>
  <path id="Path_817" data-name="Path 817" class="cls-7" d="M697.957,736.834l-21.412-12.566a51.627,51.627,0,0,1,10.963-13.1L727.9,723.728l-31.65-18.6a51.443,51.443,0,0,1,76.161,45.126c0,28.412-23.031,29.39-51.443,29.39s-51.443-.978-51.443-29.39a51.249,51.249,0,0,1,4.394-20.923Z" transform="translate(-193.867 -159.476)"/>
  <path id="Path_818" data-name="Path 818" class="cls-3" d="M695.451,770.573a41.012,41.012,0,0,1,7.59-5.962c3.888-2.572,7.91-5.212,12.49-6.089,4.023-.767,8.172-.118,12.262-.354a28.673,28.673,0,0,0,18.806-8.61c2.918-3.028,5.22-6.747,8.737-9.049,3.787-2.53,8.594-3.019,13.088-2.4a35.916,35.916,0,0,1,3.879.793,51.349,51.349,0,0,1,3.036,17.457c0,28.412-23.031,29.39-51.443,29.39-13.788,0-26.3-.228-35.546-3.711l1.543-2.884a40.523,40.523,0,0,1,5.558-8.577Z" transform="translate(-196.818 -165.597)"/>
</svg>
