<svg xmlns="http://www.w3.org/2000/svg" viewBox="0 0 240 240">
  <defs>
    <style>
      .cls-1 {
        fill: #E86724;
      }

      .cls-2 {
        fill: #fff;
      }

      .cls-3, .cls-4, .cls-6 {
        fill: none;
      }

      .cls-3 {
        stroke: #fe853d;
      }

      .cls-4 {
        stroke: #ffdac4;
      }

      .cls-5 {
        stroke: none;
      }
    </style>
  </defs>
  <g id="structure" transform="translate(-918 -494)">
    <circle id="Ellipse" class="cls-1" cx="100" cy="100" r="100" transform="translate(938 514)"/>
    <circle id="Ellipse-2" data-name="Ellipse" class="cls-2" cx="90" cy="90" r="90" transform="translate(948 524)"/>
    <g id="Outline" class="cls-3" transform="translate(928 504)">
      <circle class="cls-5" cx="110" cy="110" r="110"/>
      <circle class="cls-6" cx="110" cy="110" r="109.5"/>
    </g>
    <g id="Outline_big" data-name="Outline big" class="cls-4" transform="translate(918 494)">
      <circle class="cls-5" cx="120" cy="120" r="120"/>
      <circle class="cls-6" cx="120" cy="120" r="119.5"/>
    </g>
    <path id="Path_985" data-name="Path 985" class="cls-1" d="M17.127-83.25H52.682a8.186,8.186,0,0,1,6.4,1.951,8.152,8.152,0,0,1,3.144,6.07v24.064l7.8-12.791q6.5,10.189,18.211,29.376t14.525,23.956H50.514q-6.287,6.5-11.273,8.455A27.031,27.031,0,0,1,20.162-1.3,26.986,26.986,0,0,1,4.77-12.791,27.1,27.1,0,0,1,.217-32.086,27.72,27.72,0,0,1,9.105-49.863v-22.98A10.142,10.142,0,0,1,10.948-80,7.16,7.16,0,0,1,17.127-83.25Zm2.6,11.49V-56.15a27.751,27.751,0,0,1,17.777.217A26.223,26.223,0,0,1,51.6-45.311V-71.76ZM28.4-47.045a17.664,17.664,0,0,0-11.057,4.011,22.14,22.14,0,0,0-6.721,10.3,17.483,17.483,0,0,0,2.818,14.2,17.031,17.031,0,0,0,12.141,7.913,17.136,17.136,0,0,0,13.875-3.686,16.505,16.505,0,0,0,6.938-12.574,16.832,16.832,0,0,0-4.553-14.092A16.792,16.792,0,0,0,28.4-47.045Zm41.625,3.469L56.584-21.463h27.1Z" transform="translate(991 652)"/>
  </g>
</svg>
