<svg xmlns="http://www.w3.org/2000/svg" xmlns:xlink="http://www.w3.org/1999/xlink" viewBox="0 0 305 305">
  <defs>
    <style>
      .cls-1 {
        fill: #fff2eb;
      }

      .cls-2 {
        fill: #ffdac9;
      }

      .cls-3 {
        fill: url(#linear-gradient);
      }

      .cls-4 {
        fill: #ffb494;
      }

      .cls-5 {
        fill: #cb4a12;
      }

      .cls-6 {
        fill: #b54d20;
        font-size: 60px;
        font-family: Material-Design-Iconic-Font;
      }
    </style>
    <linearGradient id="linear-gradient" x1="0.037" x2="0.808" y2="1" gradientUnits="objectBoundingBox">
      <stop offset="0" stop-color="#ffa353"/>
      <stop offset="1" stop-color="#fe591e"/>
    </linearGradient>
  </defs>
  <g id="upload" transform="translate(-437.928 -326.561)">
    <circle id="Ellipse_45" data-name="Ellipse 45" class="cls-1" cx="152.5" cy="152.5" r="152.5" transform="translate(437.928 326.561)"/>
    <g id="Group_222" data-name="Group 222" transform="translate(-82.266 30.266)">
      <rect id="Rectangle_210" data-name="Rectangle 210" class="cls-2" width="144" height="172" rx="10" transform="translate(606.732 357.842) rotate(11)"/>
      <path id="Subtraction_2" data-name="Subtraction 2" class="cls-3" d="M1657.311,16074H1553a10,10,0,0,1-10-10v-152a10,10,0,0,1,10-10h124a10.012,10.012,0,0,1,10,10v118.5h-.5v.771L1657.311,16074h0Z" transform="translate(-935.999 -15543.999)"/>
      <path id="Path_982" data-name="Path 982" class="cls-4" d="M722.252,529.088l-5.022-43.667h35.054Z" transform="translate(-1 1)"/>
      <path id="Path_983" data-name="Path 983" class="cls-5" d="M722.131,529.074l-4.953-43.627,35.1-.026Z" transform="translate(1438.431 1015.422) rotate(180)"/>
    </g>
    <text id="_" data-name="" class="cls-6" transform="translate(597.928 496.561)"><tspan x="-30" y="0"></tspan></text>
  </g>
</svg>
